<?xml version="1.0" encoding="utf-8"?>
<!-- Generator: Adobe Illustrator 17.1.0, SVG Export Plug-In . SVG Version: 6.00 Build 0)  -->
<!DOCTYPE svg PUBLIC "-//W3C//DTD SVG 1.1//EN" "http://www.w3.org/Graphics/SVG/1.1/DTD/svg11.dtd">
<svg version="1.1" id="Calque_1" xmlns="http://www.w3.org/2000/svg" xmlns:xlink="http://www.w3.org/1999/xlink" x="0px" y="0px"
	 viewBox="0 0 151.073 207.46" enable-background="new 0 0 151.073 207.46" xml:space="preserve">
<g>
	<g>
		<path fill="#001B5B" d="M114.772,33.074c-1.232-1.005-2.955-1.048-4.266-0.148c-1.2,0.823-2.516,1.547-3.938,2.166
			c-1.409,0.669-2.948,1.227-4.623,1.648l-37.131,9.159l-0.513,0.175c-1.045,0.263-2.022,0.655-2.936,1.135
			c-3.426,2.042-5.564,5.766-5.565,9.772c0.001,0.916,0.112,1.848,0.346,2.781v0.001c1.293,5.177,5.947,8.629,11.046,8.63
			c0.906,0,1.828-0.111,2.751-0.339l11.099-3.537v0.001c2.027-0.675,4.196-1.043,6.445-1.042c0.378,0,0.759,0.01,1.142,0.031
			c9.936,0.558,18.151,8.401,19.122,18.315V81.82v0.003v-0.001c0.046,0.464,0.074,0.925,0.088,1.382
			c0.006,0.195,0.009,0.39,0.009,0.585c0.001,4.592-1.646,8.872-4.382,12.276c-2.737,3.405-6.567,5.957-10.984,7.133l-25.511,6.789
			c-5.737,1.656-10.689,5.26-14.344,10.066c-3.654,4.806-5.991,10.803-6.485,17.158v0.002c-0.025,0.316-0.037,1.038-0.037,1.038
			c0,2.328,2.252,3.994,4.478,3.312l23.358-7.159l29.456-7.635c11.677-3.027,19.832-13.565,19.832-25.628V50.873
			C123.229,43.575,119.88,37.238,114.772,33.074 M67.653,64.74c-4.354,0-7.883-3.529-7.883-7.883c0-4.353,3.529-7.883,7.883-7.883
			c4.354,0,7.883,3.53,7.883,7.883C75.536,61.211,72.007,64.74,67.653,64.74"/>
		<path fill="#199DEF" d="M108.683,29.508c0.749-0.544,1.438-1.127,2.055-1.751c2.878-2.924,4.372-6.658,4.381-10.923
			c0-1.173-0.117-2.386-0.355-3.629c-0.901-4.704-3.703-8.556-7.447-10.943c-3.642-1.986-7.969-2.769-12.361-1.926L83.19,3.004
			L27.509,17.435C17.147,20.121,9.911,29.471,9.911,40.176v54.128l0.565,20.85c0,12.54,6.737,22.888,15.957,27.322
			c-3.551-12.963-3.663-24.514-3.663-24.514V64.996c0-10.474,7.08-19.624,17.22-22.252l54.485-14.122
			C99.439,27.336,104.351,27.786,108.683,29.508"/>
		<path fill="#0C28DD" d="M42.311,136.913L42.311,136.913L42.311,136.913c0.555-7.101,3.153-13.783,7.257-19.185
			c4.104-5.398,9.734-9.527,16.344-11.435l0.038-0.01l25.544-6.798c3.61-0.96,6.75-3.054,8.976-5.826
			c2.227-2.775,3.535-6.203,3.536-9.87c0-0.155-0.003-0.312-0.007-0.468c-0.012-0.373-0.035-0.749-0.072-1.125
			c-0.809-7.12-5.995-13.135-13.023-14.536c-1.16-0.231-2.303-0.341-3.417-0.341c-1.84,0-3.603,0.3-5.252,0.852l-0.027,0.009
			l-11.184,3.563l-0.116,0.033c-1.241,0.311-2.488,0.461-3.716,0.461c-6.832,0.001-13.036-4.618-14.773-11.539
			c-0.311-1.241-0.461-2.488-0.461-3.716c-0.001-6.779,4.551-12.934,11.385-14.727l0.515-0.176l0.162-0.048l37.36-9.216
			c2.903-0.731,5.325-1.871,7.295-3.301c0.003-0.003,0.003-0.008-0.001-0.01c-4.329-1.719-9.238-2.168-14.199-0.882L39.993,42.743
			c-10.141,2.628-17.224,11.78-17.224,22.256v52.963c0,0,0.113,11.55,3.664,24.512c0,0.001,0.001,0.002,0.002,0.003
			c2.887,1.388,6.017,2.194,9.26,2.305c3.614,0.123,6.577-2.867,6.567-6.483C42.262,138.299,42.277,137.348,42.311,136.913"/>
		<path fill="#001B5B" d="M24.483,180.281v6.654c-4.909,0-9.633,0.102-14.35-0.046c-2.168-0.067-2.921,0.565-2.845,2.788
			c0.155,4.55-0.018,9.112,0.077,13.666c0.035,1.738-0.545,2.309-2.289,2.265c-6.08-0.154-4.98,0.63-5.008-4.985
			C0.007,188.528,0.108,176.432,0,164.339c-0.022-2.393,0.692-3.146,3.095-3.097c6.888,0.141,13.783,0.115,20.672,0.011
			c2.089-0.033,2.735,0.69,2.698,2.724c-0.073,4.042,0.022,4.044-4.026,4.045c-4.235,0-8.471,0.078-12.703-0.034
			c-1.887-0.051-2.496,0.659-2.425,2.459c0.1,2.564,0.079,5.137,0.008,7.703c-0.044,1.61,0.598,2.181,2.21,2.156
			C14.417,180.234,19.308,180.281,24.483,180.281"/>
		<path fill="#001B5B" d="M119.612,190.215c-0.007,9.182-7.096,16.057-16.439,15.944c-9.341-0.113-16.112-6.881-16.046-16.041
			c0.065-9.111,6.749-15.571,16.133-15.591C112.712,174.508,119.618,181.134,119.612,190.215 M112.722,190.158
			c-0.054-5.702-3.973-9.681-9.467-9.61c-5.541,0.07-9.25,4.023-9.211,9.816c0.04,5.824,3.756,9.713,9.298,9.729
			C108.954,200.109,112.778,196.058,112.722,190.158"/>
		<path fill="#001B5B" d="M81.633,190.269c-0.034,9.074-6.953,15.839-16.255,15.892c-9.376,0.055-16.342-6.859-16.221-16.096
			c0.121-9.153,6.779-15.551,16.169-15.538C74.767,174.54,81.667,181.202,81.633,190.269 M56.042,190.302
			c0.028,5.837,3.707,9.73,9.25,9.791c5.605,0.061,9.457-3.969,9.439-9.876c-0.017-5.714-3.892-9.699-9.403-9.672
			C59.805,180.573,56.014,184.556,56.042,190.302"/>
		<path fill="#001B5B" d="M139.083,180.929h-13.582v-5.602c0.658-0.062,1.366-0.186,2.075-0.188
			c6.387-0.016,12.776-0.033,19.164,0.019c0.837,0.008,1.672,0.41,2.508,0.628c-0.247,0.845-0.306,1.814-0.769,2.515
			c-4.106,6.215-8.289,12.38-12.438,18.566c-0.674,1.004-1.301,2.041-2.02,3.173c5.723,1.213,11.074,3.019,16.976,0.506
			c0,1.726,0.21,2.993-0.07,4.142c-0.205,0.845-0.99,2.132-1.622,2.197c-3.586,0.368-7.219,0.712-10.806,0.519
			c-4.2-0.226-8.359-1.112-12.555-1.508c-1.842-0.174-2.138-0.975-1.571-2.418c0.297-0.758,0.818-1.435,1.273-2.125
			c3.922-5.94,7.853-11.873,11.777-17.811C137.859,182.883,138.271,182.208,139.083,180.929"/>
		<path fill="#001B5B" d="M46.271,199.858c0.124,0.239,0.279,0.396,0.263,0.53c-0.209,1.708,0.178,4.167-0.796,4.963
			c-2.174,1.78-8.648,0.241-10.207-2.213c-1.07-1.681-2.008-3.79-2.045-5.725c-0.219-11.428-0.142-22.862-0.208-34.293
			c-0.008-1.458,0.657-1.846,1.971-1.837c5.882,0.038,4.715-0.398,4.752,4.462c0.067,8.864,0.017,17.728,0.022,26.592
			c0,0.994,0.002,1.991,0.077,2.98c0.278,3.706,0.998,4.358,4.769,4.434C45.354,199.76,45.839,199.824,46.271,199.858"/>
	</g>
</g>
</svg>
