<?xml version="1.0" encoding="utf-8"?>
<!-- Generator: Adobe Illustrator 17.1.0, SVG Export Plug-In . SVG Version: 6.00 Build 0)  -->
<!DOCTYPE svg PUBLIC "-//W3C//DTD SVG 1.1//EN" "http://www.w3.org/Graphics/SVG/1.1/DTD/svg11.dtd">
<svg version="1.1" id="Calque_1" xmlns="http://www.w3.org/2000/svg" xmlns:xlink="http://www.w3.org/1999/xlink" x="0px" y="0px"
	 viewBox="0 0 89.892 124.932" enable-background="new 0 0 89.892 124.932" xml:space="preserve">
<line fill="#199DEF" x1="-128.623" y1="156.698" x2="219.72" y2="156.698"/>
<path fill="#FFFFFF" d="M71.626,22.869c-0.667-0.543-1.598-0.567-2.307-0.08c-0.65,0.445-1.362,0.837-2.131,1.172
	c-0.762,0.362-1.595,0.664-2.501,0.892l-20.089,4.955l-0.276,0.095c-0.567,0.141-1.095,0.354-1.589,0.614
	c-1.854,1.104-3.011,3.119-3.011,5.286c0,0.496,0.06,1,0.186,1.505h0.001c0.7,2.801,3.217,4.669,5.976,4.669
	c0.49,0,0.988-0.059,1.488-0.184l6.004-1.913l0.001,0.001c1.096-0.366,2.27-0.564,3.486-0.564c0.206,0,0.412,0.005,0.619,0.017
	c5.375,0.302,9.82,4.545,10.344,9.908v-0.001l0.001,0.002c0,0-0.001,0-0.001-0.001c0.026,0.252,0.041,0.501,0.048,0.748
	c0.004,0.106,0.005,0.211,0.005,0.317c0.001,2.484-0.891,4.799-2.371,6.641c-1.48,1.843-3.553,3.223-5.942,3.859L45.765,64.48
	c-3.104,0.896-5.782,2.846-7.76,5.446c-1.976,2.599-3.241,5.845-3.509,9.283v0.001c-0.013,0.17-0.019,0.562-0.019,0.562
	c-0.001,1.259,1.218,2.16,2.423,1.791l12.636-3.874l15.936-4.129c6.318-1.638,10.729-7.339,10.729-13.866V32.499
	C76.201,28.55,74.39,25.122,71.626,22.869 M46.134,40.001c-2.355,0-4.265-1.91-4.265-4.265s1.91-4.265,4.265-4.265
	c2.355,0,4.265,1.91,4.265,4.265S48.489,40.001,46.134,40.001"/>
<path fill="#FFFFFF" d="M68.331,20.939c0.405-0.294,0.778-0.61,1.112-0.948c1.557-1.581,2.366-3.602,2.37-5.909
	c0-0.635-0.063-1.29-0.192-1.963c-0.487-2.545-2.003-4.629-4.028-5.92c-1.971-1.075-4.312-1.499-6.688-1.042L54.539,6.6
	l-30.124,7.807c-5.605,1.453-9.521,6.512-9.521,12.303v29.285L15.2,67.274c0,6.785,3.645,12.383,8.633,14.782
	c-1.921-7.013-1.981-13.263-1.981-13.263V40.138c0-5.666,3.831-10.616,9.316-12.038l29.476-7.64
	C63.33,19.764,65.988,20.007,68.331,20.939"/>
<path fill="#FFFFFF" d="M17.928,102.509v3.6c-2.656,0-5.212,0.055-7.764-0.025c-1.173-0.036-1.58,0.306-1.539,1.508
	c0.084,2.462-0.01,4.93,0.042,7.394c0.019,0.94-0.295,1.25-1.238,1.225c-3.29-0.083-2.694,0.341-2.71-2.697
	c-0.032-6.543,0.021-13.087-0.037-19.63c-0.011-1.295,0.375-1.702,1.675-1.676c3.726,0.076,7.457,0.063,11.184,0.006
	c1.13-0.017,1.479,0.374,1.459,1.475c-0.039,2.186,0.013,2.187-2.178,2.187c-2.29,0.001-4.582,0.043-6.873-0.018
	c-1.02-0.027-1.349,0.357-1.311,1.331c0.054,1.386,0.043,2.779,0.005,4.167c-0.025,0.871,0.323,1.179,1.195,1.167
	C12.483,102.484,15.128,102.509,17.928,102.509"/>
<g opacity="0.6">
	<g>
		<defs>
			<rect id="SVGID_1_" x="21.852" y="20.059" width="46.477" height="63.247"/>
		</defs>
		<clipPath id="SVGID_2_">
			<use xlink:href="#SVGID_1_"  overflow="visible"/>
		</clipPath>
		<path clip-path="url(#SVGID_2_)" fill="#FFFFFF" d="M32.424,79.046L32.424,79.046L32.424,79.046
			c0.3-3.842,1.705-7.457,3.926-10.379c2.22-2.921,5.266-5.154,8.842-6.186l0.021-0.006l13.819-3.678
			c1.954-0.519,3.652-1.652,4.857-3.152c1.204-1.501,1.912-3.355,1.912-5.339c0-0.085-0.001-0.169-0.004-0.254
			c-0.006-0.202-0.019-0.405-0.038-0.609c-0.439-3.852-3.244-7.105-7.046-7.863c-0.627-0.125-1.246-0.185-1.849-0.185
			c-0.995,0-1.949,0.162-2.84,0.461l-0.015,0.004l-6.051,1.929l-0.063,0.017c-0.671,0.169-1.346,0.249-2.01,0.249
			c-3.696,0.001-7.053-2.498-7.992-6.242c-0.169-0.671-0.25-1.346-0.25-2.011c0-3.667,2.462-6.997,6.159-7.967l0.279-0.095
			l0.087-0.026l20.213-4.986c1.57-0.396,2.881-1.012,3.946-1.786c0.002-0.001,0.002-0.004,0-0.005
			c-2.342-0.931-4.999-1.173-7.682-0.478L31.17,28.1c-5.487,1.422-9.318,6.373-9.318,12.041v28.653c0,0,0.06,6.249,1.981,13.262
			c0,0.001,0.001,0.001,0.002,0.002c1.562,0.751,3.255,1.186,5.009,1.246c1.956,0.067,3.559-1.551,3.554-3.507
			C32.398,79.796,32.405,79.282,32.424,79.046"/>
	</g>
</g>
<path fill="#FFFFFF" d="M69.394,107.883c-0.004,4.968-3.839,8.688-8.894,8.626c-5.054-0.06-8.717-3.722-8.682-8.677
	c0.035-4.93,3.652-8.425,8.729-8.436C65.66,99.385,69.396,102.97,69.394,107.883 M65.666,107.853
	c-0.029-3.085-2.149-5.237-5.122-5.2c-2.998,0.038-5.005,2.178-4.983,5.311c0.021,3.152,2.032,5.255,5.03,5.264
	C63.627,113.236,65.696,111.045,65.666,107.853"/>
<path fill="#FFFFFF" d="M48.847,107.913c-0.019,4.91-3.762,8.569-8.794,8.598c-5.073,0.029-8.842-3.711-8.777-8.708
	c0.066-4.952,3.668-8.414,8.748-8.406C45.132,99.404,48.865,103.008,48.847,107.913 M35.001,107.931
	c0.016,3.157,2.006,5.265,5.005,5.297c3.032,0.032,5.116-2.148,5.106-5.343c-0.008-3.092-2.105-5.248-5.087-5.232
	C37.037,102.667,34.986,104.823,35.001,107.931"/>
<path fill="#FFFFFF" d="M79.928,102.86h-7.349v-3.03c0.357-0.034,0.74-0.102,1.123-0.103c3.456-0.008,6.913-0.017,10.369,0.012
	c0.453,0.003,0.904,0.221,1.356,0.339c-0.134,0.457-0.165,0.981-0.416,1.36c-2.222,3.362-4.484,6.697-6.729,10.044
	c-0.365,0.544-0.704,1.105-1.093,1.717c3.096,0.656,5.991,1.634,9.184,0.274c0,0.934,0.114,1.619-0.037,2.241
	c-0.111,0.458-0.536,1.154-0.878,1.189c-1.94,0.199-3.905,0.385-5.846,0.28c-2.272-0.122-4.522-0.601-6.792-0.815
	c-0.997-0.095-1.158-0.528-0.851-1.309c0.161-0.41,0.443-0.776,0.689-1.149c2.122-3.214,4.249-6.424,6.372-9.636
	C79.266,103.917,79.489,103.552,79.928,102.86"/>
<path fill="#FFFFFF" d="M29.715,113.101c0.067,0.129,0.151,0.214,0.143,0.287c-0.114,0.923,0.096,2.254-0.431,2.685
	c-1.176,0.963-4.679,0.13-5.523-1.198c-0.578-0.91-1.085-2.05-1.106-3.097c-0.118-6.183-0.076-12.368-0.112-18.553
	c-0.004-0.789,0.355-0.999,1.066-0.994c3.183,0.02,2.551-0.215,2.571,2.414c0.037,4.796,0.009,9.591,0.012,14.387
	c0,0.538,0.001,1.077,0.041,1.612c0.151,2.005,0.54,2.357,2.58,2.398C29.22,113.048,29.482,113.082,29.715,113.101"/>
</svg>
